<svg width="35" height="35" viewBox="0 0 35 35" fill="none" xmlns="http://www.w3.org/2000/svg">
<path fill-rule="evenodd" clip-rule="evenodd" d="M0.583075 22.3529C0.00664682 20.3426 0.729162 18.1641 2.56962 15.8004C1.30805 13.0832 1.09411 10.798 2.10797 8.96899C3.12184 7.13994 5.17316 6.1104 8.14597 5.7404C9.17522 2.92702 10.6398 1.15986 12.6501 0.583435C14.6603 0.00700675 16.8388 0.729522 19.2025 2.56998C21.9197 1.30841 24.2049 1.09447 26.0339 2.10833C27.863 3.12219 28.8925 5.17352 29.2625 8.14633C32.0759 9.17558 33.8431 10.6402 34.4195 12.6504C34.9959 14.6607 34.2734 16.8392 32.4329 19.2029C33.6945 21.92 33.9085 24.2052 32.8946 26.0343C31.8807 27.8633 29.8294 28.8929 26.8566 29.2629C25.8273 32.0763 24.3627 33.8434 22.3525 34.4199C20.3423 34.9963 18.1638 34.2738 15.8 32.4333C13.0829 33.6949 10.7977 33.9088 8.96863 32.895C7.13958 31.8811 6.11004 29.8298 5.74004 26.857C2.92666 25.8277 1.1595 24.3631 0.583075 22.3529ZM7.69891 24.1382C8.3344 24.3315 8.78442 24.8972 8.82973 25.5599C9.00668 28.1474 9.63509 29.6056 10.52 30.0962C11.405 30.5867 12.9746 30.3469 15.2627 29.1257C15.8487 28.813 16.567 28.8949 17.0676 29.3314C19.0224 31.0359 20.4979 31.6227 21.4705 31.3438C22.4431 31.0649 23.3834 29.7854 24.1379 27.304C24.3311 26.6685 24.8969 26.2185 25.5595 26.1732C28.147 25.9962 29.6053 25.3678 30.0958 24.4829C30.5863 23.598 30.3465 22.0283 29.1254 19.7402C28.8127 19.1542 28.8945 18.4359 29.331 17.9353C31.0356 15.9805 31.6223 14.5051 31.3435 13.5325C31.0646 12.5599 29.7851 11.6195 27.3037 10.8651C26.6682 10.6718 26.2181 10.1061 26.1728 9.44341C25.9959 6.85589 25.3675 5.39764 24.4825 4.90712C23.5976 4.41659 22.0279 4.65642 19.7398 5.87754C19.1538 6.19027 18.4356 6.10843 17.935 5.6719C15.9802 3.96737 14.5047 3.38059 13.5321 3.65947C12.5595 3.93836 11.6192 5.21787 10.8647 7.69927C10.6715 8.33476 10.1057 8.78478 9.44305 8.8301C6.85553 9.00704 5.39728 9.63546 4.90676 10.5204C4.41623 11.4053 4.65606 12.975 5.87718 15.2631C6.18991 15.8491 6.10807 16.5673 5.67154 17.068C3.96701 19.0227 3.38023 20.4982 3.65911 21.4708C3.938 22.4434 5.21751 23.3838 7.69891 24.1382ZM24.9849 14.8682L15.6475 17.5457L14.2174 12.5584L11.1414 13.4405L13.4535 21.5038L25.867 17.9443L24.9849 14.8682Z" fill="#FFF5F9"/>
</svg>
